<svg width="200" height="200" viewBox="0 0 200 200" fill="none" xmlns="http://www.w3.org/2000/svg">
<path d="M5 7H188V192H5V7Z" fill="#CCF3FF"/>
<path fill-rule="evenodd" clip-rule="evenodd" d="M200 0H0V200H200V0ZM183.871 16.129H17.7419V182.258H183.871V16.129Z" fill="#225CF0"/>
<path d="M33.3838 167.889V27.5858H58.9111V147.089H145.22V167.889H33.3838Z" fill="#225CF0"/>
<path fill-rule="evenodd" clip-rule="evenodd" d="M70.7271 27.2828V136.586H96.2544V107.174H118.473C128.347 107.174 136.857 105.598 144 102.446C151.144 99.1899 156.659 94.5676 160.546 88.5798C164.432 82.5919 166.376 75.501 166.376 67.3071C166.376 59.0081 164.432 51.8646 160.546 45.8768C156.659 39.8889 151.144 35.3192 144 32.1677C136.857 28.9111 128.347 27.2828 118.473 27.2828H70.7271ZM96.2544 86.3737H117.055C124.933 86.3737 130.816 84.6929 134.703 81.3313C138.59 77.9697 140.533 73.2949 140.533 67.3071C140.533 61.2141 138.59 56.4869 134.703 53.1252C130.816 49.7636 124.933 48.0828 117.055 48.0828H96.2544V86.3737Z" fill="#225CF0"/>
</svg>
